<?xml version="1.0" encoding="UTF-8" standalone="no"?>
<!DOCTYPE svg PUBLIC "-//W3C//DTD SVG 1.1//EN"
 "http://www.w3.org/Graphics/SVG/1.1/DTD/svg11.dtd">
<!-- Generated by graphviz version 2.40.1 (20161225.0304)
 -->
<!-- Title: G Pages: 1 -->
<svg width="435pt" height="116pt"
 viewBox="0.00 0.00 434.61 116.30" xmlns="http://www.w3.org/2000/svg" xmlns:xlink="http://www.w3.org/1999/xlink">
<g id="graph0" class="graph" transform="scale(1 1) rotate(0) translate(21.6 94.6986)">
<title>G</title>
<polygon fill="#111111" stroke="transparent" points="-21.6,21.6 -21.6,-94.6986 413.0131,-94.6986 413.0131,21.6 -21.6,21.6"/>
<!-- Matrix.ts -->
<g id="node1" class="node">
<title>Matrix.ts</title>
<path fill="none" stroke="#ff6c60" d="M60.7687,-33.1482C60.7687,-33.1482 8.121,-33.1482 8.121,-33.1482 4.088,-33.1482 .0551,-29.1152 .0551,-25.0823 .0551,-25.0823 .0551,-17.0164 .0551,-17.0164 .0551,-12.9834 4.088,-8.9505 8.121,-8.9505 8.121,-8.9505 60.7687,-8.9505 60.7687,-8.9505 64.8016,-8.9505 68.8346,-12.9834 68.8346,-17.0164 68.8346,-17.0164 68.8346,-25.0823 68.8346,-25.0823 68.8346,-29.1152 64.8016,-33.1482 60.7687,-33.1482"/>
<text text-anchor="middle" x="34.4448" y="-17.8986" font-family="Arial" font-size="14.00" fill="#ff6c60">Matrix.ts</text>
</g>
<!-- Point.ts -->
<g id="node2" class="node">
<title>Point.ts</title>
<path fill="none" stroke="#ff6c60" d="M159.3587,-33.1482C159.3587,-33.1482 113.11,-33.1482 113.11,-33.1482 109.0771,-33.1482 105.0442,-29.1152 105.0442,-25.0823 105.0442,-25.0823 105.0442,-17.0164 105.0442,-17.0164 105.0442,-12.9834 109.0771,-8.9505 113.11,-8.9505 113.11,-8.9505 159.3587,-8.9505 159.3587,-8.9505 163.3916,-8.9505 167.4246,-12.9834 167.4246,-17.0164 167.4246,-17.0164 167.4246,-25.0823 167.4246,-25.0823 167.4246,-29.1152 163.3916,-33.1482 159.3587,-33.1482"/>
<text text-anchor="middle" x="136.2344" y="-17.8986" font-family="Arial" font-size="14.00" fill="#ff6c60">Point.ts</text>
</g>
<!-- Matrix.ts&#45;&gt;Point.ts -->
<g id="edge1" class="edge">
<title>Matrix.ts&#45;&gt;Point.ts</title>
<path fill="none" stroke="#757575" d="M68.9061,-14.6223C77.1889,-14.2858 86.1222,-14.2122 94.6894,-14.4016"/>
<polygon fill="#757575" stroke="#757575" points="94.7719,-17.9066 104.8896,-14.763 95.0198,-10.911 94.7719,-17.9066"/>
</g>
<!-- Rectangle.ts -->
<g id="node3" class="node">
<title>Rectangle.ts</title>
<path fill="none" stroke="#ff6c60" d="M289.2439,-73.1482C289.2439,-73.1482 211.7347,-73.1482 211.7347,-73.1482 207.7017,-73.1482 203.6688,-69.1152 203.6688,-65.0823 203.6688,-65.0823 203.6688,-57.0164 203.6688,-57.0164 203.6688,-52.9834 207.7017,-48.9505 211.7347,-48.9505 211.7347,-48.9505 289.2439,-48.9505 289.2439,-48.9505 293.2768,-48.9505 297.3097,-52.9834 297.3097,-57.0164 297.3097,-57.0164 297.3097,-65.0823 297.3097,-65.0823 297.3097,-69.1152 293.2768,-73.1482 289.2439,-73.1482"/>
<text text-anchor="middle" x="250.4893" y="-57.8986" font-family="Arial" font-size="14.00" fill="#ff6c60">Rectangle.ts</text>
</g>
<!-- Matrix.ts&#45;&gt;Rectangle.ts -->
<g id="edge2" class="edge">
<title>Matrix.ts&#45;&gt;Rectangle.ts</title>
<path fill="none" stroke="#757575" d="M68.9162,-32.5247C80.2734,-35.9824 93.0316,-39.5251 104.8896,-42.0493 133.8523,-48.2146 166.5088,-52.6968 193.5438,-55.7539"/>
<polygon fill="#757575" stroke="#757575" points="193.2889,-59.2469 203.6105,-56.8564 194.051,-52.2885 193.2889,-59.2469"/>
</g>
<!-- Point.ts&#45;&gt;Matrix.ts -->
<g id="edge3" class="edge">
<title>Point.ts&#45;&gt;Matrix.ts</title>
<path fill="none" stroke="#757575" d="M104.8896,-27.3357C96.6991,-27.7433 87.712,-27.8821 78.9787,-27.7522"/>
<polygon fill="#757575" stroke="#757575" points="78.9982,-24.2516 68.9061,-27.4763 78.8065,-31.2489 78.9982,-24.2516"/>
</g>
<!-- Point.ts&#45;&gt;Rectangle.ts -->
<g id="edge4" class="edge">
<title>Point.ts&#45;&gt;Rectangle.ts</title>
<path fill="none" stroke="#757575" d="M167.455,-25.8887C184.198,-30.8368 204.7077,-38.0531 221.1542,-44.7963"/>
<polygon fill="#757575" stroke="#757575" points="220.2279,-48.2062 230.7994,-48.9093 222.9737,-41.7672 220.2279,-48.2062"/>
</g>
<!-- Size.ts -->
<g id="node4" class="node">
<title>Size.ts</title>
<path fill="none" stroke="#ff6c60" d="M383.354,-24.1482C383.354,-24.1482 341.4585,-24.1482 341.4585,-24.1482 337.4255,-24.1482 333.3926,-20.1152 333.3926,-16.0823 333.3926,-16.0823 333.3926,-8.0164 333.3926,-8.0164 333.3926,-3.9834 337.4255,.0495 341.4585,.0495 341.4585,.0495 383.354,.0495 383.354,.0495 387.387,.0495 391.4199,-3.9834 391.4199,-8.0164 391.4199,-8.0164 391.4199,-16.0823 391.4199,-16.0823 391.4199,-20.1152 387.387,-24.1482 383.354,-24.1482"/>
<text text-anchor="middle" x="362.4063" y="-8.8986" font-family="Arial" font-size="14.00" fill="#ff6c60">Size.ts</text>
</g>
<!-- Point.ts&#45;&gt;Size.ts -->
<g id="edge5" class="edge">
<title>Point.ts&#45;&gt;Size.ts</title>
<path fill="none" stroke="#757575" d="M167.6826,-14.9529C208.3606,-10.9381 279.2147,-7.9829 323.3127,-8.3526"/>
<polygon fill="#757575" stroke="#757575" points="323.3208,-11.8531 333.3733,-8.5068 323.4282,-4.8539 323.3208,-11.8531"/>
</g>
<!-- Rectangle.ts&#45;&gt;Point.ts -->
<g id="edge6" class="edge">
<title>Rectangle.ts&#45;&gt;Point.ts</title>
<path fill="none" stroke="#757575" d="M203.5834,-51.2809C190.5511,-46.968 176.7853,-41.9162 165.1191,-37.1174"/>
<polygon fill="#757575" stroke="#757575" points="166.4465,-33.8785 155.8755,-33.1676 163.6959,-40.3154 166.4465,-33.8785"/>
</g>
<!-- Rectangle.ts&#45;&gt;Size.ts -->
<g id="edge7" class="edge">
<title>Rectangle.ts&#45;&gt;Size.ts</title>
<path fill="none" stroke="#757575" d="M278.1541,-48.937C292.413,-42.6941 309.9978,-34.995 325.4074,-28.2483"/>
<polygon fill="#757575" stroke="#757575" points="326.915,-31.4091 334.6717,-24.1922 324.1075,-24.9967 326.915,-31.4091"/>
</g>
<!-- Size.ts&#45;&gt;Point.ts -->
<g id="edge8" class="edge">
<title>Size.ts&#45;&gt;Point.ts</title>
<path fill="none" stroke="#757575" d="M333.3733,-17.9024C293.848,-21.9674 222.8701,-25.0141 177.733,-24.7627"/>
<polygon fill="#757575" stroke="#757575" points="177.7237,-21.2625 167.6826,-24.6429 177.6401,-28.262 177.7237,-21.2625"/>
</g>
</g>
</svg>
