<?xml version="1.0" encoding="UTF-8" standalone="no"?>
<!DOCTYPE svg PUBLIC "-//W3C//DTD SVG 1.1//EN"
 "http://www.w3.org/Graphics/SVG/1.1/DTD/svg11.dtd">
<!-- Generated by graphviz version 2.40.1 (20161225.0304)
 -->
<!-- Title: G Pages: 1 -->
<svg width="993pt" height="191pt"
 viewBox="0.00 0.00 992.81 191.25" xmlns="http://www.w3.org/2000/svg" xmlns:xlink="http://www.w3.org/1999/xlink">
<g id="graph0" class="graph" transform="scale(1 1) rotate(0) translate(21.6 169.6493)">
<title>G</title>
<polygon fill="#111111" stroke="transparent" points="-21.6,21.6 -21.6,-169.6493 971.2113,-169.6493 971.2113,21.6 -21.6,21.6"/>
<!-- LinkedPoint.ts -->
<g id="node1" class="node">
<title>LinkedPoint.ts</title>
<path fill="none" stroke="#ff6c60" d="M95.8506,-24.1482C95.8506,-24.1482 8.0937,-24.1482 8.0937,-24.1482 4.0608,-24.1482 .0278,-20.1152 .0278,-16.0823 .0278,-16.0823 .0278,-8.0164 .0278,-8.0164 .0278,-3.9834 4.0608,.0495 8.0937,.0495 8.0937,.0495 95.8506,.0495 95.8506,.0495 99.8836,.0495 103.9165,-3.9834 103.9165,-8.0164 103.9165,-8.0164 103.9165,-16.0823 103.9165,-16.0823 103.9165,-20.1152 99.8836,-24.1482 95.8506,-24.1482"/>
<text text-anchor="middle" x="51.9722" y="-8.8986" font-family="Arial" font-size="14.00" fill="#ff6c60">LinkedPoint.ts</text>
</g>
<!-- PointBase.ts -->
<g id="node2" class="node">
<title>PointBase.ts</title>
<path fill="none" stroke="#ff6c60" d="M226.2787,-82.1482C226.2787,-82.1482 148.2096,-82.1482 148.2096,-82.1482 144.1766,-82.1482 140.1437,-78.1152 140.1437,-74.0823 140.1437,-74.0823 140.1437,-66.0164 140.1437,-66.0164 140.1437,-61.9834 144.1766,-57.9505 148.2096,-57.9505 148.2096,-57.9505 226.2787,-57.9505 226.2787,-57.9505 230.3116,-57.9505 234.3446,-61.9834 234.3446,-66.0164 234.3446,-66.0164 234.3446,-74.0823 234.3446,-74.0823 234.3446,-78.1152 230.3116,-82.1482 226.2787,-82.1482"/>
<text text-anchor="middle" x="187.2441" y="-66.8986" font-family="Arial" font-size="14.00" fill="#ff6c60">PointBase.ts</text>
</g>
<!-- LinkedPoint.ts&#45;&gt;PointBase.ts -->
<g id="edge1" class="edge">
<title>LinkedPoint.ts&#45;&gt;PointBase.ts</title>
<path fill="none" stroke="#757575" d="M80.3296,-24.208C100.4405,-32.8309 127.6414,-44.4937 149.5736,-53.8975"/>
<polygon fill="#757575" stroke="#757575" points="148.354,-57.1826 158.924,-57.9066 151.1125,-50.7491 148.354,-57.1826"/>
</g>
<!-- Matrix.ts -->
<g id="node3" class="node">
<title>Matrix.ts</title>
<path fill="none" stroke="#ff6c60" d="M331.3126,-102.1482C331.3126,-102.1482 278.6649,-102.1482 278.6649,-102.1482 274.632,-102.1482 270.599,-98.1152 270.599,-94.0823 270.599,-94.0823 270.599,-86.0164 270.599,-86.0164 270.599,-81.9834 274.632,-77.9505 278.6649,-77.9505 278.6649,-77.9505 331.3126,-77.9505 331.3126,-77.9505 335.3456,-77.9505 339.3785,-81.9834 339.3785,-86.0164 339.3785,-86.0164 339.3785,-94.0823 339.3785,-94.0823 339.3785,-98.1152 335.3456,-102.1482 331.3126,-102.1482"/>
<text text-anchor="middle" x="304.9888" y="-86.8986" font-family="Arial" font-size="14.00" fill="#ff6c60">Matrix.ts</text>
</g>
<!-- PointBase.ts&#45;&gt;Matrix.ts -->
<g id="edge5" class="edge">
<title>PointBase.ts&#45;&gt;Matrix.ts</title>
<path fill="none" stroke="#757575" d="M234.4569,-78.0688C243.0082,-79.5213 251.9013,-81.0319 260.3751,-82.4713"/>
<polygon fill="#757575" stroke="#757575" points="260.0072,-85.9588 270.4521,-84.183 261.1795,-79.0577 260.0072,-85.9588"/>
</g>
<!-- Point.ts -->
<g id="node4" class="node">
<title>Point.ts</title>
<path fill="none" stroke="#ff6c60" d="M941.3909,-104.1482C941.3909,-104.1482 895.1423,-104.1482 895.1423,-104.1482 891.1093,-104.1482 887.0764,-100.1152 887.0764,-96.0823 887.0764,-96.0823 887.0764,-88.0164 887.0764,-88.0164 887.0764,-83.9834 891.1093,-79.9505 895.1423,-79.9505 895.1423,-79.9505 941.3909,-79.9505 941.3909,-79.9505 945.4239,-79.9505 949.4568,-83.9834 949.4568,-88.0164 949.4568,-88.0164 949.4568,-96.0823 949.4568,-96.0823 949.4568,-100.1152 945.4239,-104.1482 941.3909,-104.1482"/>
<text text-anchor="middle" x="918.2666" y="-88.8986" font-family="Arial" font-size="14.00" fill="#ff6c60">Point.ts</text>
</g>
<!-- PointBase.ts&#45;&gt;Point.ts -->
<g id="edge6" class="edge">
<title>PointBase.ts&#45;&gt;Point.ts</title>
<path fill="none" stroke="#757575" d="M223.641,-82.2756C237.8996,-89.0228 254.631,-96.7778 270.5439,-102.0493 335.6682,-123.6232 353.7391,-130.0493 422.3438,-130.0493 422.3438,-130.0493 422.3438,-130.0493 695.9912,-130.0493 760.3938,-130.0493 833.0663,-110.9292 877.2596,-99.4145"/>
<polygon fill="#757575" stroke="#757575" points="878.2502,-102.7734 887.0511,-96.8748 876.4927,-95.9977 878.2502,-102.7734"/>
</g>
<!-- Rectangle.ts -->
<g id="node5" class="node">
<title>Rectangle.ts</title>
<path fill="none" stroke="#ff6c60" d="M461.0983,-64.1482C461.0983,-64.1482 383.5892,-64.1482 383.5892,-64.1482 379.5562,-64.1482 375.5233,-60.1152 375.5233,-56.0823 375.5233,-56.0823 375.5233,-48.0164 375.5233,-48.0164 375.5233,-43.9834 379.5562,-39.9505 383.5892,-39.9505 383.5892,-39.9505 461.0983,-39.9505 461.0983,-39.9505 465.1313,-39.9505 469.1642,-43.9834 469.1642,-48.0164 469.1642,-48.0164 469.1642,-56.0823 469.1642,-56.0823 469.1642,-60.1152 465.1313,-64.1482 461.0983,-64.1482"/>
<text text-anchor="middle" x="422.3438" y="-48.8986" font-family="Arial" font-size="14.00" fill="#ff6c60">Rectangle.ts</text>
</g>
<!-- PointBase.ts&#45;&gt;Rectangle.ts -->
<g id="edge7" class="edge">
<title>PointBase.ts&#45;&gt;Rectangle.ts</title>
<path fill="none" stroke="#757575" d="M234.5372,-66.4284C272.1591,-63.5479 324.9465,-59.5064 364.98,-56.4413"/>
<polygon fill="#757575" stroke="#757575" points="365.4226,-59.9177 375.1262,-55.6644 364.8882,-52.9381 365.4226,-59.9177"/>
</g>
<!-- Size.ts -->
<g id="node6" class="node">
<title>Size.ts</title>
<path fill="none" stroke="#ff6c60" d="M716.939,-26.1482C716.939,-26.1482 675.0434,-26.1482 675.0434,-26.1482 671.0105,-26.1482 666.9775,-22.1152 666.9775,-18.0823 666.9775,-18.0823 666.9775,-10.0164 666.9775,-10.0164 666.9775,-5.9834 671.0105,-1.9505 675.0434,-1.9505 675.0434,-1.9505 716.939,-1.9505 716.939,-1.9505 720.9719,-1.9505 725.0049,-5.9834 725.0049,-10.0164 725.0049,-10.0164 725.0049,-18.0823 725.0049,-18.0823 725.0049,-22.1152 720.9719,-26.1482 716.939,-26.1482"/>
<text text-anchor="middle" x="695.9912" y="-10.8986" font-family="Arial" font-size="14.00" fill="#ff6c60">Size.ts</text>
</g>
<!-- PointBase.ts&#45;&gt;Size.ts -->
<g id="edge8" class="edge">
<title>PointBase.ts&#45;&gt;Size.ts</title>
<path fill="none" stroke="#757575" d="M234.4738,-58.1899C272.3331,-49.1868 326.9565,-37.3212 375.4336,-31.0493 476.0626,-18.03 595.6979,-14.9307 656.4053,-14.2264"/>
<polygon fill="#757575" stroke="#757575" points="656.7215,-17.7235 666.6861,-14.1238 656.6516,-10.7239 656.7215,-17.7235"/>
</g>
<!-- Matrix.ts&#45;&gt;Point.ts -->
<g id="edge2" class="edge">
<title>Matrix.ts&#45;&gt;Point.ts</title>
<path fill="none" stroke="#757575" d="M339.4689,-90.4784C389.7441,-91.066 486.1169,-92.0493 568.1191,-92.0493 568.1191,-92.0493 568.1191,-92.0493 695.9912,-92.0493 759.0466,-92.0493 832.1637,-92.0493 876.8091,-92.0493"/>
<polygon fill="#757575" stroke="#757575" points="876.9777,-95.5494 886.9777,-92.0493 876.9777,-88.5494 876.9777,-95.5494"/>
</g>
<!-- Matrix.ts&#45;&gt;Rectangle.ts -->
<g id="edge3" class="edge">
<title>Matrix.ts&#45;&gt;Rectangle.ts</title>
<path fill="none" stroke="#757575" d="M339.5644,-78.8536C350.6568,-75.2618 363.1401,-71.2197 374.9839,-67.3846"/>
<polygon fill="#757575" stroke="#757575" points="376.3023,-70.6367 384.7378,-64.2263 374.1459,-63.9771 376.3023,-70.6367"/>
</g>
<!-- Point.ts&#45;&gt;PointBase.ts -->
<g id="edge4" class="edge">
<title>Point.ts&#45;&gt;PointBase.ts</title>
<path fill="none" stroke="#757575" d="M898.6371,-104.1991C860.2488,-121.1971 772.3129,-148.0493 695.9912,-148.0493 422.3438,-148.0493 422.3438,-148.0493 422.3438,-148.0493 353.7391,-148.0493 335.6682,-141.6232 270.5439,-120.0493 247.3057,-112.3511 222.322,-99.3567 205.8428,-88.1803"/>
<polygon fill="#757575" stroke="#757575" points="207.7732,-85.2565 197.6278,-82.2035 203.655,-90.9169 207.7732,-85.2565"/>
</g>
<!-- RectangleBase.ts -->
<g id="node7" class="node">
<title>RectangleBase.ts</title>
<path fill="none" stroke="#ff6c60" d="M622.784,-64.1482C622.784,-64.1482 513.4543,-64.1482 513.4543,-64.1482 509.4213,-64.1482 505.3884,-60.1152 505.3884,-56.0823 505.3884,-56.0823 505.3884,-48.0164 505.3884,-48.0164 505.3884,-43.9834 509.4213,-39.9505 513.4543,-39.9505 513.4543,-39.9505 622.784,-39.9505 622.784,-39.9505 626.817,-39.9505 630.8499,-43.9834 630.8499,-48.0164 630.8499,-48.0164 630.8499,-56.0823 630.8499,-56.0823 630.8499,-60.1152 626.817,-64.1482 622.784,-64.1482"/>
<text text-anchor="middle" x="568.1191" y="-48.8986" font-family="Arial" font-size="14.00" fill="#ff6c60">RectangleBase.ts</text>
</g>
<!-- Rectangle.ts&#45;&gt;RectangleBase.ts -->
<g id="edge9" class="edge">
<title>Rectangle.ts&#45;&gt;RectangleBase.ts</title>
<path fill="none" stroke="#757575" d="M469.2704,-45.6952C477.526,-45.433 486.2927,-45.301 495.0626,-45.2993"/>
<polygon fill="#757575" stroke="#757575" points="495.3093,-48.8007 505.3289,-45.3572 495.3488,-41.8008 495.3093,-48.8007"/>
</g>
<!-- SizeBase.ts -->
<g id="node8" class="node">
<title>SizeBase.ts</title>
<path fill="none" stroke="#ff6c60" d="M842.8179,-26.1482C842.8179,-26.1482 769.102,-26.1482 769.102,-26.1482 765.069,-26.1482 761.0361,-22.1152 761.0361,-18.0823 761.0361,-18.0823 761.0361,-10.0164 761.0361,-10.0164 761.0361,-5.9834 765.069,-1.9505 769.102,-1.9505 769.102,-1.9505 842.8179,-1.9505 842.8179,-1.9505 846.8509,-1.9505 850.8838,-5.9834 850.8838,-10.0164 850.8838,-10.0164 850.8838,-18.0823 850.8838,-18.0823 850.8838,-22.1152 846.8509,-26.1482 842.8179,-26.1482"/>
<text text-anchor="middle" x="805.96" y="-10.8986" font-family="Arial" font-size="14.00" fill="#ff6c60">SizeBase.ts</text>
</g>
<!-- Size.ts&#45;&gt;SizeBase.ts -->
<g id="edge14" class="edge">
<title>Size.ts&#45;&gt;SizeBase.ts</title>
<path fill="none" stroke="#757575" d="M725.1721,-8.0089C733.0384,-7.5424 741.816,-7.3059 750.6061,-7.2995"/>
<polygon fill="#757575" stroke="#757575" points="750.844,-10.8018 760.877,-7.3975 750.9109,-3.8021 750.844,-10.8018"/>
</g>
<!-- RectangleBase.ts&#45;&gt;LinkedPoint.ts -->
<g id="edge10" class="edge">
<title>RectangleBase.ts&#45;&gt;LinkedPoint.ts</title>
<path fill="none" stroke="#757575" d="M519.1088,-39.9818C503.2899,-36.533 485.6144,-33.145 469.2539,-31.0493 343.8796,-14.9896 195.7965,-11.9908 114.0433,-11.7124"/>
<polygon fill="#757575" stroke="#757575" points="113.9321,-8.2123 103.9246,-11.6908 113.9171,-15.2123 113.9321,-8.2123"/>
</g>
<!-- RectangleBase.ts&#45;&gt;Point.ts -->
<g id="edge11" class="edge">
<title>RectangleBase.ts&#45;&gt;Point.ts</title>
<path fill="none" stroke="#757575" d="M630.9853,-55.7799C688.4573,-59.6758 775.7043,-66.8103 850.9219,-78.0493 859.4108,-79.3177 868.4416,-80.9775 877.0408,-82.7088"/>
<polygon fill="#757575" stroke="#757575" points="876.3757,-86.1453 886.8789,-84.755 877.8012,-79.292 876.3757,-86.1453"/>
</g>
<!-- RectangleBase.ts&#45;&gt;Rectangle.ts -->
<g id="edge12" class="edge">
<title>RectangleBase.ts&#45;&gt;Rectangle.ts</title>
<path fill="none" stroke="#757575" d="M505.3289,-58.7414C496.7286,-58.8406 487.9372,-58.8123 479.4459,-58.6566"/>
<polygon fill="#757575" stroke="#757575" points="479.3544,-55.1533 469.2704,-58.4034 479.1802,-62.1512 479.3544,-55.1533"/>
</g>
<!-- RectangleBase.ts&#45;&gt;Size.ts -->
<g id="edge13" class="edge">
<title>RectangleBase.ts&#45;&gt;Size.ts</title>
<path fill="none" stroke="#757575" d="M608.9302,-39.9214C624.3993,-35.3244 641.9556,-30.1072 657.2304,-25.5679"/>
<polygon fill="#757575" stroke="#757575" points="658.3052,-28.8999 666.8938,-22.6962 656.3111,-22.1899 658.3052,-28.8999"/>
</g>
<!-- SizeBase.ts&#45;&gt;Point.ts -->
<g id="edge15" class="edge">
<title>SizeBase.ts&#45;&gt;Point.ts</title>
<path fill="none" stroke="#757575" d="M828.2716,-26.1713C835.6134,-30.3648 843.7333,-35.2267 850.9219,-40.0493 866.4183,-50.4454 883.02,-63.2438 895.8625,-73.542"/>
<polygon fill="#757575" stroke="#757575" points="893.7359,-76.3236 903.7096,-79.898 898.1418,-70.8841 893.7359,-76.3236"/>
</g>
<!-- SizeBase.ts&#45;&gt;Size.ts -->
<g id="edge16" class="edge">
<title>SizeBase.ts&#45;&gt;Size.ts</title>
<path fill="none" stroke="#757575" d="M760.877,-20.7011C752.4029,-20.8709 743.6043,-20.8206 735.3226,-20.5501"/>
<polygon fill="#757575" stroke="#757575" points="735.3204,-17.0465 725.1721,-20.0898 735.0032,-24.0393 735.3204,-17.0465"/>
</g>
</g>
</svg>
